<?xml version="1.0" encoding="UTF-8" standalone="no"?>
<svg
   xmlns:dc="http://purl.org/dc/elements/1.1/"
   xmlns:cc="http://creativecommons.org/ns#"
   xmlns:rdf="http://www.w3.org/1999/02/22-rdf-syntax-ns#"
   xmlns:svg="http://www.w3.org/2000/svg"
   xmlns="http://www.w3.org/2000/svg"
   xmlns:sodipodi="http://sodipodi.sourceforge.net/DTD/sodipodi-0.dtd"
   xmlns:inkscape="http://www.inkscape.org/namespaces/inkscape"
   version="1.1"
   viewBox="0.0 0.0 100.0 100.0"
   id="svg2"
   width="28.222222912098783mm"
   height="28.222222912098783mm"
   sodipodi:docname="ClineCraftLogoCoins.SVG"
   inkscape:version="1.0.1 (3bc2e813f5, 2020-09-07)">
  <metadata
     id="metadata6">
    <rdf:RDF>
      <cc:Work
         rdf:about="">
        <dc:format>image/svg+xml</dc:format>
        <dc:type
           rdf:resource="http://purl.org/dc/dcmitype/StillImage" />
      </cc:Work>
    </rdf:RDF>
  </metadata>
  <defs
     id="defs4" />
  <sodipodi:namedview
     id="base"
     pagecolor="#ffffff"
     bordercolor="#666666"
     borderopacity="1.0"
     inkscape:pageopacity="0.0"
     inkscape:pageshadow="2"
     inkscape:document-units="mm"
     inkscape:current-layer="layer7"
     showgrid="false"
     inkscape:document-rotation="0"
     inkscape:zoom="5.0437498"
     inkscape:cx="68.352274"
     inkscape:cy="49.883862"
     inkscape:window-width="1263"
     inkscape:window-height="728"
     inkscape:window-x="87"
     inkscape:window-y="0"
     inkscape:window-maximized="0" />
  <g
     inkscape:label="1-Holes"
     inkscape:groupmode="layer"
     id="layer1"
     style="display:inline">
    <path
       style="fill:none;fill-opacity:1;stroke:#000000;stroke-width:0.177165;stroke-miterlimit:4;stroke-dasharray:none;stroke-opacity:1"
       d="m 56.214835,64.551653 c 2.750311,-0.157132 5.178138,-1.218553 7.135563,-3.119596 0.238428,-0.231559 0.571627,-0.583321 0.561824,-0.593122 -0.0032,-0.0032 -3.782195,0.324613 -8.39768,0.728562 -4.615486,0.403948 -8.397254,0.734454 -8.403928,0.734457 -0.04473,0 0.06319,0.06013 0.467661,0.26048 1.336956,0.662241 2.706554,1.164837 4.134474,1.517211 1.103025,0.272199 2.016354,0.408707 3.195,0.477528 0.20038,0.0117 1.069956,0.008 1.307086,-0.0055 z"
       id="path859" />
    <path
       style="fill:none;fill-opacity:1;stroke:#000000;stroke-width:0.177165;stroke-miterlimit:4;stroke-dasharray:none;stroke-opacity:1"
       d="m 54.450249,70.266896 c 1.812934,-0.09158 3.488742,-0.40437 5.13011,-0.957541 1.606779,-0.541514 3.017676,-1.262898 4.297389,-2.197233 0.960864,-0.70154 1.938871,-1.62704 2.745039,-2.597663 0.648048,-0.780247 1.283605,-1.714623 1.811019,-2.662499 0.24297,-0.436671 0.731442,-1.416705 0.731442,-1.467512 0,-0.0061 -0.477563,0.03106 -1.06125,0.0825 -0.583688,0.05144 -1.066001,0.09387 -1.071809,0.09427 -0.0058,4.05e-4 -0.06632,0.08301 -0.134466,0.183557 -0.901764,1.330491 -2.178189,2.655254 -3.454748,3.58558 -1.504905,1.096738 -3.083325,1.800592 -4.852727,2.163942 -1.997335,0.410157 -4.181785,0.401895 -6.427499,-0.02431 -3.037369,-0.576449 -6.138205,-1.918926 -8.523904,-3.690344 -0.109398,-0.08123 -0.214023,-0.147939 -0.2325,-0.148242 -0.04657,-7.65e-4 -3.902236,0.334703 -3.909334,0.340137 -0.01499,0.01148 0.437358,0.641652 0.730683,1.017915 0.678831,0.870774 1.506708,1.738014 2.342556,2.453939 1.847443,1.582383 4.01332,2.681583 6.502499,3.300071 1.212023,0.301152 2.287031,0.454845 3.6975,0.528624 0.220714,0.01155 1.422135,0.0078 1.68,-0.0052 z"
       id="path857" />
    <path
       style="fill:none;fill-opacity:1;stroke:#000000;stroke-width:0.177165;stroke-miterlimit:4;stroke-dasharray:none;stroke-opacity:1"
       d="m 54.495249,74.370788 c 0.728104,-0.04841 1.305496,-0.107201 1.935,-0.197024 6.437207,-0.918523 11.873505,-3.719973 15.353095,-7.911805 1.29444,-1.5594 2.342126,-3.334645 3.139119,-5.319061 0.180516,-0.449461 0.412522,-1.086201 0.400246,-1.098475 -0.01141,-0.01141 -4.046609,0.341167 -4.060282,0.354769 -0.0057,0.0056 -0.04354,0.08789 -0.08413,0.182768 -0.723636,1.69117 -1.7113,3.305155 -2.876939,4.701332 -0.388934,0.465855 -0.595778,0.690218 -1.115168,1.209608 -0.94225,0.942249 -1.726381,1.586254 -2.80594,2.304508 -2.664666,1.772863 -5.956606,2.882146 -9.382499,3.161617 -1.021157,0.0833 -2.173133,0.08868 -3.1875,0.01488 -3.343917,-0.243291 -6.503497,-1.2907 -9.149999,-3.033251 -2.092701,-1.377908 -4.072281,-3.299321 -5.564263,-5.40077 l -0.109748,-0.154579 -0.07674,0.0089 c -0.07639,0.0089 -4.005481,0.352707 -4.030905,0.352707 -0.0073,0 -0.01334,0.006 -0.01334,0.01326 0,0.02053 0.368067,0.543509 0.634641,0.90174 1.665228,2.237786 3.801343,4.257995 6.169807,5.835028 3.780712,2.517374 8.087663,3.922527 12.56805,4.100357 0.354205,0.01406 1.924461,-0.0044 2.2575,-0.02656 z"
       id="path855" />
    <path
       style="fill:none;fill-opacity:1;stroke:#000000;stroke-width:0.177165;stroke-miterlimit:4;stroke-dasharray:none;stroke-opacity:1"
       d="m 32.677751,40.709266 c 3.638249,-0.31741 6.646793,-0.581127 6.685652,-0.586033 l 0.07065,-0.0089 0.138698,-0.227426 c 0.944074,-1.548015 2.166434,-2.964501 3.566401,-4.132788 2.519245,-2.102336 5.573965,-3.405454 8.828594,-3.766201 1.326414,-0.147022 2.680659,-0.13432 4.00917,0.0376 3.984266,0.515604 7.651655,2.463766 10.32887,5.486825 l 0.210648,0.237861 0.07565,-0.0073 c 0.04161,-0.004 3.074286,-0.269623 6.739278,-0.590199 6.540283,-0.572076 6.663444,-0.583423 6.654082,-0.613026 -0.02272,-0.07187 -0.454623,-0.956199 -0.642891,-1.316343 -1.179513,-2.256331 -2.538809,-4.201178 -4.274828,-6.116318 -0.304015,-0.335384 -1.496386,-1.527898 -1.830598,-1.83082 -2.056453,-1.863919 -4.164688,-3.30736 -6.591887,-4.513255 -4.777933,-2.373801 -9.98935,-3.371129 -15.284999,-2.925148 -6.044081,0.509011 -11.915657,2.999576 -16.47825,6.989633 -0.624049,0.545739 -1.609585,1.499903 -2.154051,2.085482 -3.05767,3.288551 -5.294474,7.225491 -6.565979,11.556607 -0.08015,0.273005 -0.226718,0.805323 -0.226718,0.8234 0,0.006 0.02869,0.007 0.06375,0.0022 0.03506,-0.0048 3.0405,-0.268411 6.67875,-0.585822 z"
       id="path891" />
    <path
       style="fill:none;fill-opacity:1;stroke:#000000;stroke-width:0.177165;stroke-miterlimit:4;stroke-dasharray:none;stroke-opacity:1"
       d="m 54.777691,79.806981 c 0.585566,-0.01492 0.894155,-0.03016 1.382558,-0.06829 4.818616,-0.376202 9.492732,-2.109663 13.582498,-5.037259 1.916673,-1.372022 3.761459,-3.075497 5.346516,-4.936974 2.238436,-2.628801 4.053653,-5.646079 5.355809,-8.902499 0.197528,-0.49398 0.567229,-1.510475 0.55304,-1.520594 -0.003,-0.0021 -0.740389,0.06073 -1.638751,0.139632 -1.330995,0.116903 -1.635711,0.147627 -1.645955,0.165962 -0.0069,0.01237 -0.05578,0.140625 -0.108586,0.285 -0.525443,1.436506 -1.311102,3.084205 -2.105808,4.416338 -1.167877,1.957662 -2.48121,3.639269 -4.048437,5.183661 -3.484984,3.434211 -7.889436,5.752437 -12.537827,6.599121 -1.457374,0.265454 -2.755219,0.373981 -4.259999,0.356227 -1.244621,-0.01469 -2.527683,-0.125034 -3.8775,-0.33348 -6.69512,-1.033896 -12.642263,-4.166176 -16.829727,-8.863994 -0.932902,-1.046601 -1.952328,-2.403605 -2.588809,-3.446084 -0.08182,-0.134005 -0.09275,-0.145752 -0.136145,-0.14625 -0.02595,-3e-4 -0.740842,0.06021 -1.588648,0.13446 -0.847807,0.07425 -1.543762,0.135 -1.546567,0.135 -0.02639,0 0.03447,0.106469 0.360136,0.63 1.877991,3.019046 4.351276,5.820438 7.172261,8.123742 2.880752,2.3521 6.127372,4.204366 9.51,5.425657 2.966474,1.07104 5.819806,1.621041 8.639999,1.665426 0.12375,0.0019 0.275625,0.0049 0.3375,0.0065 0.06188,0.0016 0.364474,-0.0035 0.672442,-0.0113 z"
       id="path853" />
    <path
       style="fill:none;fill-opacity:1;stroke:#000000;stroke-width:0.177165;stroke-miterlimit:4;stroke-dasharray:none;stroke-opacity:1"
       d="m 71.015419,48.88487 c 0.130721,-0.01141 0.239708,-0.02293 0.242196,-0.02558 0.0075,-0.008 -0.298171,-1.962326 -0.306957,-1.962326 -0.0066,0 -0.08399,0.491106 -0.312429,1.983235 -0.0062,0.04041 -0.0056,0.04067 0.06664,0.03308 0.04008,-0.0042 0.17983,-0.01699 0.310549,-0.02841 z"
       id="path881" />
    <path
       style="fill:none;fill-opacity:1;stroke:#000000;stroke-width:0.177165;stroke-miterlimit:4;stroke-dasharray:none;stroke-opacity:1"
       d="m 63.177652,48.478675 c 0.338302,-0.02972 0.400476,-0.04686 0.479052,-0.132107 0.0786,-0.08527 0.09922,-0.179254 0.09084,-0.414091 -0.0052,-0.146097 -0.01159,-0.182672 -0.041,-0.235002 -0.07361,-0.130974 -0.155986,-0.144897 -0.608796,-0.102897 -0.132,0.01224 -0.241687,0.02229 -0.24375,0.02232 -0.0021,0 -0.0037,0.199187 -0.0037,0.442562 0,0.437962 3.15e-4,0.4425 0.03115,0.4425 0.01713,0 0.150447,-0.01048 0.29625,-0.02329 z"
       id="path877" />
  </g>
  <g
     inkscape:groupmode="layer"
     id="layer6"
     inkscape:label="3-Flag">
    <path
       style="display:inline;fill:none;fill-opacity:1;stroke:#0000ff;stroke-width:0.177165;stroke-miterlimit:4;stroke-dasharray:none;stroke-opacity:1"
       d="m 23.607769,63.764768 c 3.15699,-0.276204 8.520982,-0.745467 11.919982,-1.042804 5.017703,-0.438939 19.916557,-1.742484 31.034997,-2.715343 1.13025,-0.0989 3.512999,-0.307343 5.294999,-0.463212 1.782,-0.155871 6.431052,-0.562524 10.331227,-0.903675 l 7.09123,-0.620274 V 47.184238 36.349015 l -0.08625,0.0094 c -0.04744,0.0052 -5.563874,0.488301 -12.258748,1.073598 -6.694874,0.585296 -17.687248,1.546722 -24.427498,2.136501 -6.740249,0.589779 -17.280373,1.511441 -23.422497,2.048136 -6.142125,0.536694 -11.189437,0.979372 -11.216249,0.983728 l -0.04875,0.0079 v 10.82932 c 0,9.872748 0.0021,10.829319 0.02377,10.829319 0.01307,0 2.60676,-0.225985 5.76375,-0.502191 z"
       id="path861" />
  </g>
  <g
     inkscape:groupmode="layer"
     id="layer2"
     inkscape:label="4-Blade"
     style="display:none">
    <path
       style="fill:none;fill-opacity:1;stroke:#00ff00;stroke-width:0.177165;stroke-miterlimit:4;stroke-dasharray:none;stroke-opacity:1"
       d="m 60.712748,83.316606 c -0.612948,-0.06868 -1.426977,-0.315833 -2.306398,-0.700257 -0.509539,-0.222737 -1.206543,-0.588987 -1.703209,-0.894975 -0.302048,-0.186087 -0.506534,-0.228638 -0.656546,-0.136617 -0.0964,0.05913 -0.170598,0.170733 -0.28359,0.426531 -0.173266,0.392254 -0.283501,0.493275 -0.540256,0.4951 -0.257307,0.0018 -0.507797,0.06252 -1.014674,0.245856 -0.821719,0.297209 -1.031524,0.320982 -1.591234,0.180315 -0.915318,-0.23004 -2.399649,-0.934824 -3.138687,-1.490296 -0.07723,-0.05804 -0.210159,-0.170309 -0.295408,-0.249477 -0.210327,-0.195324 -0.36632,-0.309935 -0.528713,-0.388452 -0.344197,-0.166424 -0.676587,-0.190898 -1.212882,-0.0893 -0.620451,0.117534 -0.635005,0.11904 -0.959065,0.09925 -0.604963,-0.03695 -1.658224,-0.173867 -3.199336,-0.415905 -1.059147,-0.166344 -1.680086,-0.274814 -1.8,-0.314436 -0.666469,-0.220211 -1.652611,-0.958991 -2.896947,-2.170281 -0.332482,-0.323654 -0.430093,-0.403296 -0.598053,-0.487959 -0.20899,-0.105347 -0.326395,-0.122366 -0.96,-0.139158 -0.292092,-0.0077 -0.583704,-0.02339 -0.6825,-0.03663 -0.35508,-0.04757 -0.752527,-0.143443 -1.12868,-0.272259 -1.364913,-0.467419 -1.779374,-0.979705 -1.399352,-1.729643 0.0224,-0.04421 0.112074,-0.185723 0.199266,-0.314468 0.201962,-0.298213 0.243767,-0.376858 0.243767,-0.458583 0,-0.07964 -0.03722,-0.129981 -0.12347,-0.166998 -0.05701,-0.02447 -0.09691,-0.02673 -0.36403,-0.02061 -0.691193,0.01584 -1.221684,0.008 -1.393013,-0.0206 -0.373351,-0.0623 -0.564424,-0.143541 -0.729487,-0.310159 -0.165657,-0.167219 -0.258848,-0.357195 -0.368228,-0.750666 -0.03768,-0.135561 -0.09163,-0.329448 -0.11988,-0.43086 -0.128607,-0.461682 -0.218662,-0.602906 -0.662335,-1.038665 -0.640719,-0.62929 -0.882967,-0.780037 -1.302043,-0.810238 -0.302351,-0.02179 -0.568524,-0.08579 -0.998661,-0.240146 -0.438932,-0.157506 -1.030986,-0.432304 -1.251353,-0.580807 -0.0889,-0.05991 -0.112051,-0.08494 -0.150988,-0.163242 -0.129164,-0.259751 -0.163047,-0.625278 -0.186786,-2.015016 -0.01783,-1.043844 -0.04155,-1.310085 -0.136358,-1.530471 -0.05652,-0.131379 -0.224712,-0.260007 -0.365155,-0.279258 -0.09044,-0.01239 -0.180885,0.01282 -0.361332,0.100728 -0.215663,0.105065 -0.292406,0.09708 -0.353175,-0.03674 -0.03823,-0.0842 -0.03754,-0.287666 0.0016,-0.473171 0.05706,-0.270342 0.219732,-0.712587 0.412251,-1.120738 l 0.08224,-0.174341 -0.110541,-0.113074 -0.11054,-0.113075 -4.160609,0.363059 c -2.288336,0.199683 -4.189297,0.366981 -4.22436,0.371772 l -0.06375,0.0087 v -1.659204 c 0,-1.593607 -0.0011,-1.659202 -0.02726,-1.659202 -0.01499,0 -1.957305,0.168919 -4.31625,0.375378 -2.358944,0.206457 -4.2971245,0.373519 -4.3070545,0.37125 -0.0108,-0.0025 1.13421,-2.409306 2.8378235,-5.965292 l 2.855889,-5.961163 -0.03112,-0.06134 c -0.01712,-0.03371 -1.30294,-2.49376 -2.857383,-5.466753 -1.5544395,-2.972992 -2.8242095,-5.406995 -2.8216995,-5.408894 0.004,-0.0033 11.3920525,-0.999368 11.4158085,-0.998552 0.0062,2.1e-4 0.01125,0.742488 0.01125,1.649502 0,0.907013 0.0055,1.652487 0.01212,1.656607 0.0067,0.0041 0.214231,-0.0099 0.46125,-0.0311 l 0.449126,-0.03859 0.1725,-0.123262 c 0.882391,-0.630522 1.745224,-1.190229 2.526307,-1.638775 0.167966,-0.09646 0.350955,-0.214422 0.413693,-0.266691 0.187104,-0.155883 0.323788,-0.328994 0.412306,-0.522183 0.11731,-0.256028 0.112314,-0.502407 -0.01569,-0.773789 -0.07368,-0.156217 -0.169117,-0.284011 -0.343504,-0.459982 -0.226716,-0.228774 -0.402758,-0.345678 -0.623112,-0.41379 -0.154151,-0.04765 -0.370161,-0.04727 -0.51,8.85e-4 -0.115961,0.03994 -0.270966,0.129805 -0.347923,0.201717 l -0.05542,0.05179 -0.499577,-0.08062 c -0.274767,-0.04434 -0.664952,-0.105348 -0.867077,-0.13557 -0.202125,-0.03022 -0.369878,-0.05695 -0.372783,-0.05939 -0.0029,-0.0024 0.144538,-0.187037 0.327653,-0.410208 0.288048,-0.351059 0.340331,-0.407786 0.387783,-0.420738 0.293759,-0.08019 0.63723,-0.180312 0.644909,-0.187991 0.0052,-0.0052 0.108176,-0.2166 0.22873,-0.469671 l 0.219188,-0.460131 0.355117,-0.161446 c 1.002719,-0.45587 2.030243,-0.863956 2.934402,-1.165414 0.152625,-0.05089 0.31125,-0.110028 0.3525,-0.131423 0.25938,-0.13453 0.501221,-0.341764 0.61214,-0.524547 0.08585,-0.141478 0.117511,-0.246252 0.126306,-0.418033 0.0099,-0.192482 -0.02567,-0.34424 -0.129758,-0.554273 -0.18985,-0.383097 -0.442107,-0.664975 -0.710409,-0.793827 -0.137416,-0.06599 -0.227781,-0.0868 -0.378279,-0.0871 -0.14941,-3e-4 -0.281614,0.03368 -0.429051,0.110246 l -0.114049,0.05923 -0.778451,-0.287123 c -0.428146,-0.157918 -0.797317,-0.293923 -0.820379,-0.302233 -0.02306,-0.0083 -0.03994,-0.02031 -0.0375,-0.02666 0.0045,-0.01168 0.584176,-0.491706 0.726529,-0.601611 l 0.0771,-0.05953 0.312902,-0.02246 c 0.172096,-0.01235 0.335296,-0.026 0.362667,-0.03032 0.04497,-0.0071 0.0793,-0.04745 0.356434,-0.418964 0.277982,-0.372643 0.311915,-0.412495 0.362735,-0.426009 0.115918,-0.03082 0.579405,-0.136773 0.948565,-0.21684 0.837368,-0.181617 1.703877,-0.331905 2.517072,-0.436561 0.383891,-0.04941 0.607524,-0.124674 0.851412,-0.286557 0.127045,-0.08433 0.281961,-0.258464 0.341463,-0.38383 0.06549,-0.137983 0.08512,-0.232175 0.08479,-0.406849 -4.35e-4,-0.231838 -0.06022,-0.446465 -0.209765,-0.753011 -0.176911,-0.362657 -0.427157,-0.588993 -0.722155,-0.653154 -0.121438,-0.02641 -0.370852,-0.01097 -0.488232,0.03023 l -0.09291,0.03261 -0.743281,-0.454844 c -0.408806,-0.250164 -0.743307,-0.458507 -0.743337,-0.462983 0,-0.0083 0.649101,-0.362478 0.823638,-0.44937 l 0.09619,-0.04789 0.323808,0.03909 c 0.178093,0.0215 0.342105,0.03903 0.364468,0.03895 0.03195,-1.05e-4 0.121499,-0.07364 0.417701,-0.342971 l 0.377036,-0.342831 0.2123,-0.0098 c 0.116766,-0.0054 0.576801,-0.01397 1.022301,-0.0191 0.840747,-0.0097 1.467157,0.0043 2.19,0.0488 0.451837,0.02783 0.617265,0.02165 0.825,-0.03081 0.420321,-0.10614 0.697815,-0.355291 0.787869,-0.707393 0.07446,-0.29112 0.01103,-0.787606 -0.141609,-1.10856 -0.141785,-0.298122 -0.335538,-0.472841 -0.617045,-0.556428 -0.09356,-0.02778 -0.340216,-0.03811 -0.414223,-0.01735 -0.03694,0.01036 -0.08532,-0.03038 -0.63,-0.530538 -0.324495,-0.29797 -0.615674,-0.566738 -0.647061,-0.597264 l -0.05707,-0.0555 0.372069,-0.1149 c 0.204637,-0.0632 0.433966,-0.131283 0.509619,-0.151307 l 0.13755,-0.03641 0.342105,0.110569 0.342106,0.11057 0.04534,-0.02754 c 0.62679,-0.380649 0.82639,-0.496402 0.855984,-0.496402 0.04483,0 0.517963,0.07463 0.91436,0.144217 0.85292,0.14974 1.860561,0.373801 2.64,0.587036 l 0.255,0.06976 0.255,-3.25e-4 c 0.214388,-2.73e-4 0.273735,-0.0055 0.37263,-0.03275 0.195839,-0.05398 0.303258,-0.115134 0.438774,-0.2498 0.196475,-0.195243 0.27713,-0.399836 0.305718,-0.775482 0.03328,-0.437274 -0.05282,-0.789383 -0.251196,-1.027289 -0.147781,-0.17723 -0.421386,-0.316199 -0.63853,-0.324321 l -0.09495,-0.0036 -0.171225,-0.238606 c -0.09417,-0.131233 -0.325074,-0.447632 -0.513114,-0.703109 -0.18804,-0.255477 -0.338946,-0.467449 -0.335345,-0.47105 0.01684,-0.01685 0.750281,-0.09091 0.956672,-0.0966 l 0.09944,-0.0027 0.300815,0.167306 c 0.165448,0.09202 0.31087,0.167305 0.323163,0.167305 0.01229,0 0.196663,-0.06475 0.409716,-0.143888 0.213054,-0.07914 0.427884,-0.154492 0.477402,-0.167452 l 0.09003,-0.02356 0.2175,0.07915 c 1.015609,0.369582 2.185818,0.868271 3.036286,1.293926 0.408636,0.20452 0.629934,0.262323 0.949968,0.248131 0.190181,-0.0084 0.303396,-0.03968 0.44804,-0.123662 0.09478,-0.05503 0.254584,-0.218904 0.318198,-0.326298 0.188182,-0.317698 0.288853,-0.862252 0.21978,-1.188842 -0.05904,-0.279124 -0.252795,-0.529107 -0.504222,-0.650535 -0.06905,-0.03335 -0.152862,-0.06495 -0.186243,-0.07023 l -0.06069,-0.0096 -0.141259,-0.309822 c -0.07769,-0.170401 -0.243762,-0.529196 -0.369047,-0.797321 -0.125283,-0.268125 -0.22662,-0.488785 -0.225193,-0.490354 0.0055,-0.0061 0.509961,0.04135 0.7735,0.07267 l 0.276617,0.03288 0.173383,0.146013 c 0.09536,0.08031 0.220634,0.18638 0.278384,0.235716 l 0.105,0.0897 0.36,-0.05814 c 0.198,-0.03198 0.428393,-0.0661 0.511985,-0.07581 l 0.151988,-0.01767 0.193012,0.117885 c 0.98202,0.59978 2.151132,1.405773 2.893014,1.994463 0.125774,0.0998 0.419802,0.239808 0.599196,0.285315 0.320331,0.08126 0.588134,0.03376 0.825804,-0.146451 0.299075,-0.226778 0.5775,-0.818536 0.5775,-1.227406 0,-0.180216 -0.01879,-0.274666 -0.08181,-0.411315 -0.08392,-0.181944 -0.231374,-0.333253 -0.426942,-0.438085 l -0.08125,-0.04355 -0.124799,-0.52418 c -0.06864,-0.2883 -0.161079,-0.670994 -0.205422,-0.850431 -0.04434,-0.179438 -0.07816,-0.32625 -0.07516,-0.32625 0.03784,0 0.973829,0.290184 1.003962,0.311256 0.0088,0.0062 0.115726,0.137806 0.237517,0.292494 l 0.221438,0.28125 0.09998,5.73e-4 c 0.05499,3.15e-4 0.287286,0.0097 0.516213,0.02078 l 0.416231,0.0202 0.236269,0.221953 c 0.906519,0.85159 1.795514,1.766733 2.346632,2.415653 0.191299,0.225249 0.526117,0.445624 0.769638,0.506572 0.315795,0.07904 0.586776,0.01347 0.8475,-0.20505 0.184705,-0.154809 0.426781,-0.489534 0.520066,-0.719111 0.170215,-0.418903 0.114643,-0.769144 -0.167567,-1.056077 -0.066,-0.0671 -0.130897,-0.127854 -0.144216,-0.135 -0.02088,-0.0112 -0.02671,-0.07803 -0.04232,-0.485491 -0.01,-0.259875 -0.0271,-0.65475 -0.03809,-0.8775 -0.01099,-0.22275 -0.01807,-0.407004 -0.01573,-0.409453 0.0023,-0.0024 0.212626,0.106306 0.467302,0.241677 l 0.463047,0.24613 0.165,0.323315 0.165,0.323315 0.45,0.113618 c 0.2475,0.06249 0.474621,0.120557 0.504713,0.129038 0.04787,0.01349 0.07812,0.04774 0.241959,0.273891 0.700177,0.966511 1.363776,1.987171 1.81944,2.798429 0.07943,0.141416 0.135448,0.218606 0.237942,0.32787 0.286227,0.305134 0.54355,0.43967 0.840946,0.43967 0.295399,0 0.565341,-0.139727 0.882178,-0.456631 0.488952,-0.489055 0.566108,-1.00133 0.216212,-1.435546 l -0.07611,-0.09445 0.03341,-0.202934 c 0.06796,-0.412799 0.226601,-1.449005 0.226704,-1.480799 0,-0.01808 0.0054,-0.03612 0.01182,-0.0401 0.0094,-0.0058 0.634161,0.493541 0.783287,0.626048 0.03025,0.02688 0.05624,0.100321 0.134467,0.380024 l 0.09697,0.346703 0.468755,0.222597 0.468753,0.222597 0.0367,0.0825 c 0.02019,0.04537 0.09539,0.21075 0.167118,0.3675 0.412635,0.901734 0.812705,1.904652 1.103972,2.7675 0.136467,0.404271 0.20616,0.546017 0.367782,0.748019 0.281749,0.352145 0.633946,0.484395 1.025483,0.385071 0.240719,-0.06106 0.606576,-0.282852 0.817412,-0.495526 0.216222,-0.218106 0.305505,-0.400898 0.318742,-0.652575 0.0092,-0.173995 -0.01539,-0.284608 -0.102627,-0.462591 -0.03373,-0.06881 -0.05828,-0.136305 -0.05457,-0.15 0.01493,-0.05507 0.585422,-1.600671 0.594564,-1.61083 0.0079,-0.0088 0.628551,0.729182 0.663755,0.789248 0.0054,0.0092 0.02181,0.177391 0.03652,0.373811 l 0.02674,0.357127 0.413481,0.30735 0.413481,0.30735 0.03334,0.130523 c 0.240285,0.940609 0.512281,2.375555 0.64147,3.384154 0.02695,0.210376 0.05133,0.337654 0.08249,0.430672 0.151389,0.451866 0.417429,0.743654 0.757098,0.830372 0.115549,0.0295 0.338677,0.02916 0.483402,-7.31e-4 0.225379,-0.04655 0.533554,-0.176642 0.722635,-0.305044 0.186214,-0.126457 0.339451,-0.311641 0.406777,-0.491586 0.06218,-0.166194 0.06241,-0.410613 5.7e-4,-0.596462 l -0.03221,-0.09679 0.453411,-0.743282 c 0.249372,-0.408806 0.457656,-0.743283 0.462849,-0.743283 0.0093,0 0.356923,0.635381 0.450496,0.823347 l 0.04771,0.09585 -0.03878,0.326383 c -0.02133,0.17951 -0.03877,0.342356 -0.03877,0.361879 0,0.02533 0.09854,0.143601 0.343917,0.412789 l 0.343915,0.377294 0.01608,0.442739 c 0.03345,0.920819 0.01793,2.224626 -0.03672,3.084723 -0.01695,0.266783 -0.01855,0.383504 -0.0066,0.48 0.04267,0.343416 0.139212,0.581046 0.312204,0.768448 0.229943,0.249098 0.553323,0.339462 0.986474,0.275655 0.543204,-0.08002 0.888165,-0.277969 1.048387,-0.601603 0.08087,-0.163356 0.102318,-0.270984 0.0936,-0.469759 l -0.0074,-0.169759 0.585256,-0.6373 c 0.321891,-0.350515 0.589989,-0.631874 0.595774,-0.625241 0.02277,0.0261 0.300099,0.94122 0.300099,0.99025 0,0.01281 -0.04812,0.172583 -0.106944,0.35505 l -0.106945,0.331759 0.02954,0.0525 c 0.01625,0.02887 0.135804,0.227725 0.265676,0.441891 0.233056,0.384318 0.23601,0.390279 0.226704,0.4575 -0.02945,0.212764 -0.168098,1.024053 -0.233373,1.365609 -0.130557,0.683134 -0.321075,1.514493 -0.495552,2.162422 -0.184949,0.68682 -0.0098,1.252088 0.45888,1.480585 0.144468,0.07044 0.293001,0.105557 0.527404,0.124691 0.489516,0.03996 0.847922,-0.0619 1.094726,-0.311127 0.156429,-0.157963 0.24133,-0.343941 0.268368,-0.587868 l 0.0104,-0.0938 0.294308,-0.213013 c 0.161869,-0.117158 0.475666,-0.346965 0.697327,-0.510684 0.22166,-0.163718 0.405801,-0.294887 0.409202,-0.291486 0.01368,0.01368 0.05994,0.453325 0.101652,0.966096 0.0062,0.0763 0.002,0.08629 -0.165002,0.387748 -0.09425,0.170186 -0.171372,0.318065 -0.171372,0.328619 0,0.01055 0.04437,0.136444 0.0986,0.279752 0.05423,0.143309 0.131373,0.35624 0.171431,0.473178 l 0.07283,0.212615 -0.104386,0.280678 c -0.05741,0.154374 -0.102494,0.282572 -0.100181,0.284883 0.0034,0.0034 4.793917,-0.411112 5.002956,-0.432948 l 0.06375,-0.0067 v 1.655656 1.655658 l 0.04875,-1.5e-4 c 0.02681,0 1.975441,-0.168661 4.330285,-0.374713 2.354845,-0.206052 4.283511,-0.372665 4.285925,-0.370251 0.0024,0.0024 -1.281052,2.687875 -2.852146,5.967691 l -2.856534,5.963302 2.857008,5.464373 c 1.571355,3.005406 2.85517,5.466215 2.85292,5.468465 -0.0052,0.0052 -11.330795,0.996207 -11.385375,0.996207 h -0.04083 v -1.649115 c 0,-0.907013 -0.0051,-1.651874 -0.01125,-1.655246 -0.0088,-0.0048 -2.341777,0.194925 -2.53125,0.216692 l -0.045,0.0052 -0.0098,0.165 c -0.01773,0.298011 -0.08106,0.480108 -0.208425,0.599239 -0.08377,0.07836 -0.190953,0.134226 -0.404261,0.210723 -0.376317,0.134957 -0.631638,0.289847 -0.862849,0.523445 -0.225671,0.228 -0.334337,0.437398 -0.348359,0.671287 -0.01208,0.201458 0.01771,0.328251 0.18117,0.771231 0.220046,0.59632 0.222131,0.87136 0.01018,1.34284 -0.118301,0.263156 -0.321396,0.586868 -0.601503,0.958734 -0.35198,0.467282 -0.683594,0.842834 -1.317989,1.492617 -0.24963,0.255686 -0.493814,0.514473 -0.542632,0.575082 -0.130431,0.161936 -0.202255,0.32682 -0.393052,0.902301 -0.09436,0.284625 -0.233924,0.689625 -0.310131,0.9 -0.223697,0.617535 -0.299835,0.893372 -0.299835,1.086263 0,0.111163 0.01432,0.157963 0.06191,0.202297 0.02905,0.02706 0.05243,0.03144 0.167882,0.03144 h 0.134134 l -0.0086,0.05272 c -0.01951,0.120258 -0.183229,0.388021 -0.398814,0.652278 -0.248215,0.304255 -0.573915,0.611937 -1.516389,1.4325 -0.21794,0.18975 -0.565656,0.510538 -0.772701,0.712864 -0.207045,0.202325 -0.431606,0.409428 -0.499023,0.460229 -0.198023,0.149215 -0.282828,0.19155 -1.255941,0.626974 -0.731788,0.327444 -0.960109,0.455007 -1.16821,0.652683 -0.129519,0.12303 -0.204122,0.23559 -0.243405,0.36725 -0.02182,0.07313 -0.02566,0.12796 -0.0205,0.2925 0.01367,0.435523 0.0081,0.536952 -0.03658,0.6675 -0.0677,0.197758 -0.166686,0.327262 -0.49942,0.653403 -0.341345,0.334581 -0.503628,0.469673 -0.663759,0.55255 -0.238079,0.123219 -0.384687,0.147084 -1.020632,0.166141 -0.468541,0.01404 -0.539913,0.02419 -0.699177,0.09941 -0.105456,0.04981 -0.217986,0.172448 -0.259129,0.282416 -0.04511,0.120561 -0.05379,0.271069 -0.03277,0.568449 0.0173,0.244887 0.01691,0.253947 -0.0139,0.317584 -0.149061,0.30792 -1.228068,0.904548 -2.481507,1.37213 -0.697494,0.260193 -1.151998,0.376098 -1.58598,0.404445 -0.354717,0.02317 -0.48096,0.07725 -0.792535,0.339526 -0.384032,0.323262 -0.547532,0.386178 -1.0725,0.412701 -0.440106,0.02224 -0.680111,0.07897 -0.950213,0.224615 -0.48011,0.258886 -0.889775,0.733699 -1.62346,1.881631 -0.23149,0.362195 -0.313956,0.454373 -0.479659,0.536156 -0.175883,0.08681 -0.325923,0.117028 -0.614168,0.123705 -0.136125,0.0032 -0.3015,-3.15e-4 -0.3675,-0.0077 z"
       id="path22" />
  </g>
  <g
     inkscape:groupmode="layer"
     id="layer7"
     inkscape:label="3.5-FlagOutside">
    <g
       id="g971"
       style="display:inline;stroke:#000000;stroke-opacity:1;fill:#800080">
      <path
         style="fill:#800080;fill-opacity:1;stroke:#000000;stroke-width:0.177165;stroke-miterlimit:4;stroke-dasharray:none;stroke-opacity:1"
         d="m 92.644084,61.043862 c 2.712237,-0.237645 4.935405,-0.436148 4.940374,-0.441117 0.005,-0.005 -1.211194,-2.342748 -2.702588,-5.195061 -1.491395,-2.852314 -2.711625,-5.193823 -2.711625,-5.203354 0,-0.0095 1.210071,-2.543391 2.689047,-5.6308 1.478977,-3.087409 2.686243,-5.616277 2.682814,-5.619706 -0.0064,-0.0064 -7.52594,0.646801 -7.613111,0.661356 l -0.04875,0.0081 v 9.471682 9.47168 l -1.082612,1.39139 c -0.595437,0.765262 -1.105875,1.420075 -1.134307,1.455138 l -0.05169,0.06375 0.05056,-5.1e-4 c 0.02781,-2.85e-4 2.269661,-0.194945 4.981897,-0.432591 z"
         id="path889" />
      <path
         style="fill:#800080;fill-opacity:1;stroke:#000000;stroke-width:0.177165;stroke-miterlimit:4;stroke-dasharray:none;stroke-opacity:1"
         d="m 13.474002,61.332931 3.74625,-0.32757 v -9.474328 -9.474328 l 1.131576,-1.453622 c 0.622367,-0.799491 1.123554,-1.455365 1.11375,-1.457495 -0.02421,-0.0053 -9.9428445,0.863888 -9.9509245,0.871976 -0.009,0.009 -0.18263,-0.324546 2.7495485,5.283463 l 2.67522,5.116564 -2.692085,5.619707 c -1.480646,3.09084 -2.6920835,5.62401 -2.6920835,5.629268 0,0.0053 0.0388,0.006 0.0863,0.0017 0.0474,-0.0043 1.7720615,-0.15522 3.8324985,-0.335384 z"
         id="path887" />
    </g>
  </g>
  <g
     inkscape:groupmode="layer"
     id="layer5"
     inkscape:label="2-Letters"
     style="display:none">
    <g
       id="g903"
       style="stroke:#ff0000;stroke-opacity:1">
      <path
         style="fill:none;fill-opacity:1;stroke:#ff0000;stroke-width:0.177165;stroke-miterlimit:4;stroke-dasharray:none;stroke-opacity:1"
         d="m 83.115245,48.904445 c 0,-2.532064 -0.0034,-3.057484 -0.01992,-3.057484 -0.0296,0 -1.549664,0.132505 -1.641326,0.143077 l -0.07875,0.0091 v -1.08511 -1.085111 l 2.98125,-0.260151 c 1.639688,-0.143083 3.013312,-0.263709 3.0525,-0.268059 l 0.07125,-0.0079 v 1.082089 c 0,0.595149 -0.0017,1.082717 -0.0037,1.083485 -0.0021,7.65e-4 -0.39525,0.0362 -0.87375,0.07875 l -0.87,0.07736 -0.0075,3.059999 -0.0075,3.06 -1.2225,0.107108 c -0.672375,0.05891 -1.257937,0.110088 -1.30125,0.113733 l -0.07875,0.0066 z"
         id="path885" />
      <path
         style="fill:none;fill-opacity:1;stroke:#ff0000;stroke-width:0.177165;stroke-miterlimit:4;stroke-dasharray:none;stroke-opacity:1"
         d="m 75.105247,48.516961 c 0,-2.277 0.0021,-4.14 0.0048,-4.14 0.01698,0 5.509869,-0.481004 5.579092,-0.488552 l 0.08635,-0.0094 -0.0038,1.085055 -0.0038,1.085057 -1.514999,0.131937 c -0.83325,0.07257 -1.523437,0.134871 -1.533749,0.138457 -0.01423,0.005 -0.01875,0.08609 -0.01875,0.336992 0,0.181759 0.0046,0.330471 0.01025,0.330471 0.02949,0 2.946934,-0.25587 3.000994,-0.263198 l 0.06375,-0.0086 v 1.086945 1.086946 l -0.08625,0.0094 c -0.04744,0.0052 -0.707249,0.06312 -1.466249,0.128789 -0.759,0.06567 -1.412063,0.123484 -1.45125,0.128484 l -0.07125,0.0091 v 1.632912 1.632913 l -0.04875,0.0079 c -0.05741,0.0093 -2.463,0.218494 -2.5125,0.218458 h -0.03375 v -4.139999 z"
         id="path883" />
      <path
         style="fill:none;fill-opacity:1;stroke:#ff0000;stroke-width:0.177165;stroke-miterlimit:4;stroke-dasharray:none;stroke-opacity:1"
         d="m 67.40274,53.29821 c 0.0044,-0.01856 0.358919,-1.909668 0.787743,-4.202457 0.428823,-2.292788 0.782691,-4.171718 0.786374,-4.175401 0.0085,-0.0085 3.893332,-0.349896 3.922303,-0.344718 0.01611,0.0029 0.216856,1.009854 0.811134,4.068826 0.434346,2.23575 0.788868,4.066469 0.787824,4.068264 -0.004,0.0069 -2.592065,0.230043 -2.598075,0.224031 -0.0035,-0.0035 -0.07383,-0.437206 -0.156324,-0.963823 -0.08249,-0.526617 -0.152873,-0.960374 -0.156402,-0.963903 -0.0098,-0.0098 -1.273263,0.103627 -1.283753,0.115252 -0.005,0.0056 -0.07504,0.452304 -0.155529,0.992679 -0.08049,0.540375 -0.148474,0.984866 -0.151075,0.987758 -0.0052,0.0058 -2.493723,0.226233 -2.560749,0.226857 -0.03553,3.3e-4 -0.04037,-0.0045 -0.03347,-0.03336 z"
         id="path879" />
      <path
         style="fill:none;fill-opacity:1;stroke:#ff0000;stroke-width:0.177165;stroke-miterlimit:4;stroke-dasharray:none;stroke-opacity:1"
         d="m 60.255248,49.823718 v -4.141186 l 0.03375,-0.007 c 0.01856,-0.0039 1.130109,-0.102357 2.470106,-0.218847 2.23342,-0.194159 2.44663,-0.210432 2.559724,-0.195383 0.157836,0.02101 0.258327,0.05092 0.386898,0.115158 0.275187,0.137502 0.491341,0.383627 0.585738,0.666948 0.06476,0.194364 0.07144,0.326664 0.06508,1.288601 -0.0057,0.860758 -0.0071,0.897034 -0.0389,1.02 -0.102317,0.395255 -0.406145,0.770228 -0.766812,0.946369 -0.07362,0.03595 -0.131498,0.06772 -0.128627,0.07058 0.0029,0.0029 0.06829,0.02692 0.145382,0.05344 0.306067,0.105282 0.546417,0.322527 0.67984,0.61449 0.106217,0.232431 0.102015,0.178065 0.113246,1.46512 0.0097,1.108149 0.01164,1.169513 0.04211,1.3125 0.04633,0.217428 0.111886,0.340649 0.249672,0.469325 l 0.111883,0.104487 -0.05579,0.0081 c -0.03069,0.0045 -0.546944,0.05058 -1.147239,0.102468 l -1.091444,0.09434 -0.101056,-0.04968 c -0.268971,-0.132214 -0.443174,-0.316198 -0.538395,-0.568624 -0.07681,-0.203612 -0.08013,-0.253208 -0.08052,-1.200518 -1.95e-4,-0.483961 -0.0065,-0.906408 -0.014,-0.938769 -0.01658,-0.07149 -0.05455,-0.125035 -0.120484,-0.169911 -0.03909,-0.02661 -0.07055,-0.03374 -0.148621,-0.03369 -0.116481,0 -0.583824,0.04149 -0.603192,0.05346 -0.0076,0.0047 -0.01334,0.657887 -0.01334,1.529859 0,0.836889 -0.0051,1.521633 -0.01125,1.521656 -0.0221,1.5e-4 -2.412961,0.209218 -2.4975,0.218469 l -0.08625,0.0094 z"
         id="path875" />
      <path
         style="fill:none;fill-opacity:1;stroke:#ff0000;stroke-width:0.177165;stroke-miterlimit:4;stroke-dasharray:none;stroke-opacity:1"
         d="m 54.767164,54.410766 c -0.107967,-0.014 -0.26245,-0.06077 -0.353355,-0.106984 -0.179239,-0.09113 -0.38763,-0.284432 -0.48654,-0.451316 -0.07202,-0.121509 -0.133392,-0.311328 -0.151324,-0.468006 -0.02086,-0.182244 -0.02129,-5.814047 -4.65e-4,-5.995838 0.03826,-0.333867 0.183073,-0.615435 0.44778,-0.870612 0.203179,-0.195867 0.427491,-0.313451 0.693147,-0.363347 0.06948,-0.01305 1.135461,-0.111163 2.368836,-0.218026 1.233374,-0.106865 2.271187,-0.198171 2.306249,-0.202907 l 0.06375,-0.0086 v 1.088418 1.08842 h -0.03213 c -0.09141,0 -2.968379,0.258135 -3.014357,0.270462 -0.08238,0.02209 -0.152061,0.07614 -0.193515,0.150118 l -0.0375,0.06692 v 1.771094 1.771097 l 0.03991,0.06031 c 0.0522,0.07888 0.120177,0.109999 0.240313,0.109999 0.08192,0 2.695086,-0.222064 2.918524,-0.248013 l 0.07875,-0.0091 v 1.085059 1.08506 l -2.373749,0.206727 c -1.305563,0.1137 -2.383875,0.205552 -2.39625,0.204117 -0.01238,-0.0014 -0.06551,-0.0082 -0.118085,-0.015 z"
         id="path873" />
      <path
         style="fill:none;fill-opacity:1;stroke:#ff0000;stroke-width:0.177165;stroke-miterlimit:4;stroke-dasharray:none;stroke-opacity:1"
         d="m 44.838973,51.169799 0.0038,-4.144326 2.774999,-0.243558 c 1.52625,-0.133957 2.796938,-0.243871 2.82375,-0.244255 l 0.04875,-7.05e-4 v 1.07892 1.078921 l -0.07875,0.0091 c -0.04331,0.005 -0.696375,0.06264 -1.45125,0.128028 -0.754875,0.06539 -1.407937,0.123005 -1.45125,0.128028 l -0.07875,0.0091 v 0.328035 c 0,0.18042 0.0051,0.330606 0.01125,0.333748 0.0062,0.0031 0.6795,-0.05349 1.49625,-0.125848 0.81675,-0.07236 1.500188,-0.131906 1.51875,-0.132327 l 0.03375,-7.65e-4 v 1.0875 c 0,1.025847 -0.0015,1.08748 -0.02625,1.087153 -0.04594,-6.15e-4 -2.995435,0.257012 -3.015,0.26334 -0.01455,0.0047 -0.01875,0.128894 -0.01875,0.554036 v 0.547971 h 0.03375 c 0.01856,0 0.688254,-0.05742 1.488203,-0.1275 0.79995,-0.07009 1.473262,-0.127428 1.49625,-0.127428 h 0.0418 v 1.078527 1.078527 l -0.08625,0.0093 c -0.04744,0.0051 -1.284375,0.113584 -2.74875,0.241 -1.464374,0.127416 -2.697949,0.23574 -2.741276,0.24072 l -0.07878,0.0091 0.0038,-4.144328 z"
         id="path871" />
      <path
         style="fill:none;fill-opacity:1;stroke:#ff0000;stroke-width:0.177165;stroke-miterlimit:4;stroke-dasharray:none;stroke-opacity:1"
         d="m 36.52525,51.894026 v -4.137934 l 0.07875,-0.0088 c 0.424206,-0.04732 2.537009,-0.220323 2.544462,-0.208355 0.0051,0.0082 0.559413,0.89307 1.231788,1.966372 l 1.2225,1.95146 0.0038,-2.077413 0.0038,-2.077411 h 0.03818 c 0.04213,0 2.401404,-0.204086 2.515487,-0.217598 l 0.07128,-0.0084 -0.0038,4.14427 -0.0038,4.14427 -1.2975,0.114491 c -1.216206,0.107317 -1.29891,0.112897 -1.32,0.08905 -0.01237,-0.01399 -0.572625,-0.897107 -1.245,-1.962482 -0.672375,-1.065375 -1.227562,-1.937385 -1.23375,-1.937802 -0.0062,-4.2e-4 -0.01125,0.930613 -0.01125,2.068956 v 2.069714 l -0.03375,0.0069 c -0.0393,0.008 -2.477277,0.219111 -2.5275,0.218869 l -0.03375,-1.63e-4 z"
         id="path869" />
      <path
         style="fill:none;fill-opacity:1;stroke:#ff0000;stroke-width:0.177165;stroke-miterlimit:4;stroke-dasharray:none;stroke-opacity:1"
         d="m 33.315251,52.17764 v -4.13932 l 0.04875,-0.0078 c 0.05884,-0.0094 2.479457,-0.21881 2.527499,-0.218682 l 0.03375,1.5e-4 v 4.139999 c 0,2.277 -0.0028,4.14 -0.0062,4.14 -0.0034,0 -0.583826,0.05062 -1.289767,0.1125 -0.705939,0.06188 -1.290381,0.1125 -1.298758,0.1125 -0.01028,0 -0.01523,-1.347451 -0.01523,-4.13932 z"
         id="path867" />
      <path
         style="fill:none;fill-opacity:1;stroke:#ff0000;stroke-width:0.177165;stroke-miterlimit:4;stroke-dasharray:none;stroke-opacity:1"
         d="m 27.045251,52.724637 v -4.147676 h 0.03375 c 0.04083,0 2.403956,-0.205095 2.505,-0.217346 l 0.07125,-0.0086 v 3.061988 3.061991 l 0.08625,-0.0092 c 0.04744,-0.0051 0.70725,-0.06292 1.46625,-0.128526 0.759,-0.0656 1.405312,-0.122214 1.43625,-0.125801 l 0.05625,-0.0065 v 1.086074 c 0,0.970588 -0.0025,1.086071 -0.02323,1.086071 -0.03862,0 -5.514925,0.478634 -5.575519,0.487305 l -0.05625,0.008 v -4.147676 z"
         id="path865" />
      <path
         style="fill:none;fill-opacity:1;stroke:#ff0000;stroke-width:0.177165;stroke-miterlimit:4;stroke-dasharray:none;stroke-opacity:1"
         d="m 21.456323,57.299683 c -0.107509,-0.02339 -0.218809,-0.06894 -0.343571,-0.140595 -0.11072,-0.06359 -0.327386,-0.280627 -0.395479,-0.396151 -0.06688,-0.113463 -0.131354,-0.305873 -0.151064,-0.450813 -0.01082,-0.07956 -0.01593,-1.052646 -0.01587,-3.0225 9e-5,-3.10884 -9.52e-4,-3.062032 0.07329,-3.276138 0.1652,-0.476398 0.58552,-0.853737 1.058085,-0.949887 0.07496,-0.01525 4.658595,-0.426639 4.753563,-0.426639 0.0055,0 0.01,0.485871 0.01,1.079714 v 1.079715 l -0.03375,0.0071 c -0.01856,0.0039 -0.701311,0.06489 -1.51722,0.135566 -1.200958,0.104026 -1.495188,0.13368 -1.545,0.155715 -0.07765,0.03435 -0.15307,0.119383 -0.173643,0.195786 -0.01085,0.04029 -0.01461,0.611412 -0.01188,1.803948 l 0.004,1.744987 0.03431,0.05519 c 0.0422,0.06786 0.138864,0.117329 0.22917,0.117276 0.03658,0 0.721076,-0.0574 1.521094,-0.1275 0.800021,-0.0701 1.463208,-0.127461 1.47375,-0.127461 0.01538,0 0.01917,0.213269 0.01917,1.07932 v 1.079321 l -0.04875,0.0078 c -0.153411,0.02466 -4.574314,0.398691 -4.698749,0.397533 -0.0825,-7.65e-4 -0.191143,-0.01035 -0.241429,-0.02129 z"
         id="path863" />
    </g>
  </g>
</svg>
